<svg xmlns="http://www.w3.org/2000/svg" enable-background="new 0 0 32 32" viewBox="0 0 32 32"><path d="M27,4h-1V3c0-0.6-0.4-1-1-1s-1,0.4-1,1v1h-4V3c0-0.6-0.4-1-1-1s-1,0.4-1,1v1h-4V3c0-0.6-0.4-1-1-1s-1,0.4-1,1v1H8V3
		c0-0.6-0.4-1-1-1S6,2.4,6,3v1H5C3.3,4,2,5.3,2,7v20c0,1.7,1.3,3,3,3h22c1.7,0,3-1.3,3-3V7C30,5.3,28.7,4,27,4z M5,6h1v1
		c0,0.6,0.4,1,1,1s1-0.4,1-1V6h4v1c0,0.6,0.4,1,1,1s1-0.4,1-1V6h4v1c0,0.6,0.4,1,1,1s1-0.4,1-1V6h4v1c0,0.6,0.4,1,1,1s1-0.4,1-1V6h1
		c0.6,0,1,0.4,1,1v3H4V7C4,6.4,4.4,6,5,6z M27,28H5c-0.6,0-1-0.4-1-1V12h24v15C28,27.6,27.6,28,27,28z"/><path d="M25 15H11c-.6 0-1 .4-1 1s.4 1 1 1h14c.6 0 1-.4 1-1S25.6 15 25 15zM25 19H7c-.6 0-1 .4-1 1s.4 1 1 1h18c.6 0 1-.4 1-1S25.6 19 25 19zM21 23H7c-.6 0-1 .4-1 1s.4 1 1 1h14c.6 0 1-.4 1-1S21.6 23 21 23z"/></svg>