<svg xmlns="http://www.w3.org/2000/svg" enable-background="new 0 0 128 128" viewBox="0 0 128 128"><path fill="#ff8c64" d="M117,13h-6v2c0,3.9-3.1,7-7,7s-7-3.1-7-7v-2h-6v2c0,3.9-3.1,7-7,7s-7-3.1-7-7v-2h-6v2c0,3.9-3.1,7-7,7
	s-7-3.1-7-7v-2h-6v2c0,3.9-3.1,7-7,7s-7-3.1-7-7v-2h-6v2c0,3.9-3.1,7-7,7s-7-3.1-7-7v-2h-6c-1.7,0-3,1.3-3,3v26h112V16
	C120,14.3,118.7,13,117,13z M82.5,38h-37c-1.1,0-2-0.9-2-2c0-1.1,0.9-2,2-2h37c1.1,0,2,0.9,2,2C84.5,37.1,83.6,38,82.5,38z M88,30
	H40c-1.1,0-2-0.9-2-2c0-1.1,0.9-2,2-2h48c1.1,0,2,0.9,2,2C90,29.1,89.1,30,88,30z"/><path fill="#f9c0b2" d="M117,13H11c-1.7,0-3,1.3-3,3v2c0-1.7,1.3-3,3-3h106c1.7,0,3,1.3,3,3v-2C120,14.3,118.7,13,117,13z" opacity=".3"/><path fill="#37474f" d="M76 52h-6c-2.2 0-4 1.8-4 4v6c0 2.2 1.8 4 4 4h6c2.2 0 4-1.8 4-4v-6C80 53.8 78.2 52 76 52zM76 62h-6v-6h6V62zM94 52h-6c-2.2 0-4 1.8-4 4v6c0 2.2 1.8 4 4 4h6c2.2 0 4-1.8 4-4v-6C98 53.8 96.2 52 94 52zM94 62h-6v-6h6V62zM112 52h-6c-2.2 0-4 1.8-4 4v6c0 2.2 1.8 4 4 4h6c2.2 0 4-1.8 4-4v-6C116 53.8 114.2 52 112 52zM112 62h-6v-6h6V62zM22 70h-6c-2.2 0-4 1.8-4 4v6c0 2.2 1.8 4 4 4h6c2.2 0 4-1.8 4-4v-6C26 71.8 24.2 70 22 70zM22 80h-6v-6h6V80zM40 70h-6c-2.2 0-4 1.8-4 4v6c0 2.2 1.8 4 4 4h6c2.2 0 4-1.8 4-4v-6C44 71.8 42.2 70 40 70zM40 80h-6v-6h6V80zM58 70h-6c-2.2 0-4 1.8-4 4v6c0 2.2 1.8 4 4 4h6c2.2 0 4-1.8 4-4v-6C62 71.8 60.2 70 58 70zM58 80h-6v-6h6V80zM76 70h-6c-2.2 0-4 1.8-4 4v6c0 2.2 1.8 4 4 4h6c2.2 0 4-1.8 4-4v-6C80 71.8 78.2 70 76 70zM76 80h-6v-6h6V80zM94 70h-6c-2.2 0-4 1.8-4 4v6c0 2.2 1.8 4 4 4h6c2.2 0 4-1.8 4-4v-6C98 71.8 96.2 70 94 70zM94 80h-6v-6h6V80zM112 70h-6c-2.2 0-4 1.8-4 4v6c0 2.2 1.8 4 4 4h6c2.2 0 4-1.8 4-4v-6C116 71.8 114.2 70 112 70zM112 80h-6v-6h6V80zM22 88h-6c-2.2 0-4 1.8-4 4v6c0 2.2 1.8 4 4 4h6c2.2 0 4-1.8 4-4v-6C26 89.8 24.2 88 22 88zM22 98h-6v-6h6V98zM40 88h-6c-2.2 0-4 1.8-4 4v6c0 2.2 1.8 4 4 4h6c2.2 0 4-1.8 4-4v-6C44 89.8 42.2 88 40 88zM40 98h-6v-6h6V98zM58 88h-6c-2.2 0-4 1.8-4 4v6c0 2.2 1.8 4 4 4h6c2.2 0 4-1.8 4-4v-6C62 89.8 60.2 88 58 88zM58 98h-6v-6h6V98zM76 88h-6c-2.2 0-4 1.8-4 4v6c0 2.2 1.8 4 4 4h6c2.2 0 4-1.8 4-4v-6C80 89.8 78.2 88 76 88zM76 98h-6v-6h6V98zM94 88h-6c-2.2 0-4 1.8-4 4v6c0 2.2 1.8 4 4 4h6c2.2 0 4-1.8 4-4v-6C98 89.8 96.2 88 94 88zM94 98h-6v-6h6V98zM112 88h-6c-2.2 0-4 1.8-4 4v6c0 2.2 1.8 4 4 4h6c2.2 0 4-1.8 4-4v-6C116 89.8 114.2 88 112 88zM112 98h-6v-6h6V98zM22 106h-6c-2.2 0-4 1.8-4 4v6c0 2.2 1.8 4 4 4h6c2.2 0 4-1.8 4-4v-6C26 107.8 24.2 106 22 106zM22 116h-6v-6h6V116zM40 106h-6c-2.2 0-4 1.8-4 4v6c0 2.2 1.8 4 4 4h6c2.2 0 4-1.8 4-4v-6C44 107.8 42.2 106 40 106zM40 116h-6v-6h6V116zM58 106h-6c-2.2 0-4 1.8-4 4v6c0 2.2 1.8 4 4 4h6c2.2 0 4-1.8 4-4v-6C62 107.8 60.2 106 58 106zM58 116h-6v-6h6V116zM76 106h-6c-2.2 0-4 1.8-4 4v6c0 2.2 1.8 4 4 4h6c2.2 0 4-1.8 4-4v-6C80 107.8 78.2 106 76 106zM76 116h-6v-6h6V116z"/><path fill="#37474f" d="M117,9h-6V7c0-3.9-3.1-7-7-7s-7,3.1-7,7v2h-6V7c0-3.9-3.1-7-7-7s-7,3.1-7,7v2h-6V7c0-3.9-3.1-7-7-7s-7,3.1-7,7
	v2h-6V7c0-3.9-3.1-7-7-7s-7,3.1-7,7v2h-6V7c0-3.9-3.1-7-7-7s-7,3.1-7,7v2h-6c-3.9,0-7,3.1-7,7v106c0,3.3,2.7,6,6,6h108
	c3.3,0,6-2.7,6-6V16C124,12.1,120.9,9,117,9z M101,7c0-1.7,1.3-3,3-3s3,1.3,3,3v8c0,1.6-1.3,3-3,3s-3-1.4-3-3V7z M81,7
	c0-1.7,1.3-3,3-3s3,1.3,3,3v8c0,1.6-1.3,3-3,3s-3-1.4-3-3V7z M61,7c0-1.7,1.3-3,3-3s3,1.3,3,3v8c0,1.6-1.3,3-3,3s-3-1.4-3-3V7z
	 M41,7c0-1.7,1.3-3,3-3s3,1.3,3,3v8c0,1.6-1.3,3-3,3s-3-1.4-3-3V7z M21,7c0-1.7,1.3-3,3-3s3,1.3,3,3v8c0,1.6-1.3,3-3,3s-3-1.4-3-3V7
	z M120,122c0,1.1-0.9,2-2,2H10c-1.1,0-2-0.9-2-2V46h112V122z M120,42H8V16c0-1.7,1.3-3,3-3h6v2c0,3.9,3.1,7,7,7s7-3.1,7-7v-2h6v2
	c0,3.9,3.1,7,7,7s7-3.1,7-7v-2h6v2c0,3.9,3.1,7,7,7s7-3.1,7-7v-2h6v2c0,3.9,3.1,7,7,7s7-3.1,7-7v-2h6v2c0,3.9,3.1,7,7,7s7-3.1,7-7
	v-2h6c1.7,0,3,1.3,3,3V42z"/><path fill="#dfdee3" d="M27,7v8c0,1.6-1.3,3-3,3s-3-1.4-3-3V7c0-1.7,1.3-3,3-3S27,5.3,27,7z"/><path fill="#b3dc8a" d="M47,7v8c0,1.6-1.3,3-3,3s-3-1.4-3-3V7c0-1.7,1.3-3,3-3S47,5.3,47,7z"/><path fill="#dfdee3" d="M67,7v8c0,1.6-1.3,3-3,3s-3-1.4-3-3V7c0-1.7,1.3-3,3-3S67,5.3,67,7z"/><path fill="#b3dc8a" d="M87,7v8c0,1.6-1.3,3-3,3s-3-1.4-3-3V7c0-1.7,1.3-3,3-3S87,5.3,87,7z"/><path fill="#dfdee3" d="M107,7v8c0,1.6-1.3,3-3,3s-3-1.4-3-3V7c0-1.7,1.3-3,3-3S107,5.3,107,7z"/><path fill="#e5e5e5" d="M8,46v76c0,1.1,0.9,2,2,2h108c1.1,0,2-0.9,2-2V46H8z M26,116c0,2.2-1.8,4-4,4h-6c-2.2,0-4-1.8-4-4v-6
	c0-2.2,1.8-4,4-4h6c2.2,0,4,1.8,4,4V116z M26,98c0,2.2-1.8,4-4,4h-6c-2.2,0-4-1.8-4-4v-6c0-2.2,1.8-4,4-4h6c2.2,0,4,1.8,4,4V98z
	 M26,80c0,2.2-1.8,4-4,4h-6c-2.2,0-4-1.8-4-4v-6c0-2.2,1.8-4,4-4h6c2.2,0,4,1.8,4,4V80z M44,116c0,2.2-1.8,4-4,4h-6
	c-2.2,0-4-1.8-4-4v-6c0-2.2,1.8-4,4-4h6c2.2,0,4,1.8,4,4V116z M44,98c0,2.2-1.8,4-4,4h-6c-2.2,0-4-1.8-4-4v-6c0-2.2,1.8-4,4-4h6
	c2.2,0,4,1.8,4,4V98z M44,80c0,2.2-1.8,4-4,4h-6c-2.2,0-4-1.8-4-4v-6c0-2.2,1.8-4,4-4h6c2.2,0,4,1.8,4,4V80z M62,116
	c0,2.2-1.8,4-4,4h-6c-2.2,0-4-1.8-4-4v-6c0-2.2,1.8-4,4-4h6c2.2,0,4,1.8,4,4V116z M62,98c0,2.2-1.8,4-4,4h-6c-2.2,0-4-1.8-4-4v-6
	c0-2.2,1.8-4,4-4h6c2.2,0,4,1.8,4,4V98z M62,80c0,2.2-1.8,4-4,4h-6c-2.2,0-4-1.8-4-4v-6c0-2.2,1.8-4,4-4h6c2.2,0,4,1.8,4,4V80z
	 M80,116c0,2.2-1.8,4-4,4h-6c-2.2,0-4-1.8-4-4v-6c0-2.2,1.8-4,4-4h6c2.2,0,4,1.8,4,4V116z M80,98c0,2.2-1.8,4-4,4h-6
	c-2.2,0-4-1.8-4-4v-6c0-2.2,1.8-4,4-4h6c2.2,0,4,1.8,4,4V98z M80,80c0,2.2-1.8,4-4,4h-6c-2.2,0-4-1.8-4-4v-6c0-2.2,1.8-4,4-4h6
	c2.2,0,4,1.8,4,4V80z M80,62c0,2.2-1.8,4-4,4h-6c-2.2,0-4-1.8-4-4v-6c0-2.2,1.8-4,4-4h6c2.2,0,4,1.8,4,4V62z M98,98c0,2.2-1.8,4-4,4
	h-6c-2.2,0-4-1.8-4-4v-6c0-2.2,1.8-4,4-4h6c2.2,0,4,1.8,4,4V98z M98,80c0,2.2-1.8,4-4,4h-6c-2.2,0-4-1.8-4-4v-6c0-2.2,1.8-4,4-4h6
	c2.2,0,4,1.8,4,4V80z M98,62c0,2.2-1.8,4-4,4h-6c-2.2,0-4-1.8-4-4v-6c0-2.2,1.8-4,4-4h6c2.2,0,4,1.8,4,4V62z M116,98
	c0,2.2-1.8,4-4,4h-6c-2.2,0-4-1.8-4-4v-6c0-2.2,1.8-4,4-4h6c2.2,0,4,1.8,4,4V98z M116,80c0,2.2-1.8,4-4,4h-6c-2.2,0-4-1.8-4-4v-6
	c0-2.2,1.8-4,4-4h6c2.2,0,4,1.8,4,4V80z M116,62c0,2.2-1.8,4-4,4h-6c-2.2,0-4-1.8-4-4v-6c0-2.2,1.8-4,4-4h6c2.2,0,4,1.8,4,4V62z"/><rect width="6" height="6" x="106" y="56" fill="#ff8c64"/><rect width="6" height="6" x="106" y="74" fill="#ff8c64"/><rect width="6" height="6" x="106" y="92" fill="#ff8c64"/><rect width="6" height="6" x="88" y="92" fill="#b3dc8a"/><rect width="6" height="6" x="88" y="74" fill="#ff8c64"/><rect width="6" height="6" x="88" y="56" fill="#ff8c64"/><rect width="6" height="6" x="70" y="56" fill="#ff8c64"/><rect width="6" height="6" x="70" y="74" fill="#ff8c64"/><rect width="6" height="6" x="70" y="92" fill="#b3dc8a"/><rect width="6" height="6" x="70" y="110" fill="#ff8c64"/><rect width="6" height="6" x="52" y="110" fill="#ff8c64"/><rect width="6" height="6" x="52" y="92" fill="#b3dc8a"/><rect width="6" height="6" x="52" y="74" fill="#ff8c64"/><rect width="6" height="6" x="34" y="74" fill="#b3dc8a"/><rect width="6" height="6" x="34" y="92" fill="#b3dc8a"/><rect width="6" height="6" x="34" y="110" fill="#ff8c64"/><rect width="6" height="6" x="16" y="110" fill="#ff8c64"/><rect width="6" height="6" x="16" y="92" fill="#b3dc8a"/><rect width="6" height="6" x="16" y="74" fill="#b3dc8a"/><path fill="#37474f" d="M90 28c0 1.1-.9 2-2 2H40c-1.1 0-2-.9-2-2 0-1.1.9-2 2-2h48C89.1 26 90 26.9 90 28zM84.5 36c0 1.1-.9 2-2 2h-37c-1.1 0-2-.9-2-2 0-1.1.9-2 2-2h37C83.6 34 84.5 34.9 84.5 36z"/><path fill="#aeaeaf" d="M27,13v2c0,1.6-1.3,3-3,3s-3-1.4-3-3v-2c0,1.6,1.3,3,3,3S27,14.6,27,13z" opacity=".6"/><path fill="#ededef" d="M27,7v2c0-1.7-1.3-3-3-3s-3,1.3-3,3V7c0-1.7,1.3-3,3-3S27,5.3,27,7z" opacity=".6"/><path fill="#7f9961" d="M47,13v2c0,1.6-1.3,3-3,3s-3-1.4-3-3v-2c0,1.6,1.3,3,3,3S47,14.6,47,13z" opacity=".6"/><path fill="#d3f4ab" d="M47,7v2c0-1.7-1.3-3-3-3s-3,1.3-3,3V7c0-1.7,1.3-3,3-3S47,5.3,47,7z" opacity=".6"/><path fill="#ededef" d="M67,7v2c0-1.7-1.3-3-3-3s-3,1.3-3,3V7c0-1.7,1.3-3,3-3S67,5.3,67,7z" opacity=".6"/><path fill="#aeaeaf" d="M67,13v2c0,1.6-1.3,3-3,3s-3-1.4-3-3v-2c0,1.6,1.3,3,3,3S67,14.6,67,13z" opacity=".6"/><path fill="#ededef" d="M107,7v2c0-1.7-1.3-3-3-3s-3,1.3-3,3V7c0-1.7,1.3-3,3-3S107,5.3,107,7z" opacity=".6"/><path fill="#aeaeaf" d="M107,13v2c0,1.6-1.3,3-3,3s-3-1.4-3-3v-2c0,1.6,1.3,3,3,3S107,14.6,107,13z" opacity=".6"/><path fill="#7f9961" d="M87,13v2c0,1.6-1.3,3-3,3s-3-1.4-3-3v-2c0,1.6,1.3,3,3,3S87,14.6,87,13z" opacity=".6"/><path fill="#d3f4ab" d="M87,7v2c0-1.7-1.3-3-3-3s-3,1.3-3,3V7c0-1.7,1.3-3,3-3S87,5.3,87,7z" opacity=".6"/><rect width="112" height="2" x="8" y="40" fill="#c4674e" opacity=".6"/><rect width="112" height="2" x="8" y="46" fill="#ededef" opacity=".8"/><path fill="#aeaeaf" d="M120,120v2c0,1.1-0.9,2-2,2H10c-1.1,0-2-0.9-2-2v-2c0,1.1,0.9,2,2,2h108C119.1,122,120,121.1,120,120z" opacity=".6"/></svg>